<svg width="50" height="50" viewBox="0 0 50 50" fill="none" xmlns="http://www.w3.org/2000/svg">
<circle cx="25" cy="25" r="25" fill="url(#paint0_linear_103091_4)"/>
<path d="M29.5 13H20.5C16.3585 13 13 16.3585 13 20.5V29.5C13 33.6415 16.3585 37 20.5 37H29.5C33.6415 37 37 33.6415 37 29.5V20.5C37 16.3585 33.6415 13 29.5 13ZM34.75 29.5C34.75 32.395 32.395 34.75 29.5 34.75H20.5C17.605 34.75 15.25 32.395 15.25 29.5V20.5C15.25 17.605 17.605 15.25 20.5 15.25H29.5C32.395 15.25 34.75 17.605 34.75 20.5V29.5Z" fill="white"/>
<path d="M25 19C21.6865 19 19 21.6865 19 25C19 28.3135 21.6865 31 25 31C28.3135 31 31 28.3135 31 25C31 21.6865 28.3135 19 25 19ZM25 28.75C22.933 28.75 21.25 27.067 21.25 25C21.25 22.9315 22.933 21.25 25 21.25C27.067 21.25 28.75 22.9315 28.75 25C28.75 27.067 27.067 28.75 25 28.75Z" fill="white"/>
<path d="M31.4479 19.35C31.8895 19.35 32.2474 18.992 32.2474 18.5505C32.2474 18.1089 31.8895 17.751 31.4479 17.751C31.0064 17.751 30.6484 18.1089 30.6484 18.5505C30.6484 18.992 31.0064 19.35 31.4479 19.35Z" fill="white"/>
<defs>
<linearGradient id="paint0_linear_103091_4" x1="5.1105" y1="-5.43152e-06" x2="48.2386" y2="3.21466" gradientUnits="userSpaceOnUse">
<stop stop-color="#C89AFC"/>
<stop offset="1" stop-color="#7C6AFA"/>
</linearGradient>
</defs>
</svg>
