<svg width="50" height="50" viewBox="0 0 50 50" fill="none" xmlns="http://www.w3.org/2000/svg">
<circle cx="25" cy="25" r="25" fill="url(#paint0_linear_103091_3)"/>
<g clip-path="url(#clip0_103091_3)">
<path fill-rule="evenodd" clip-rule="evenodd" d="M34.3625 27.7577C34.3625 27.7577 36.3029 29.6741 36.7829 30.5609C36.7922 30.5736 36.7995 30.5878 36.8045 30.6029C37.0001 30.9305 37.0481 31.1873 36.9521 31.3769C36.7901 31.6901 36.2417 31.8473 36.0557 31.8605H32.6261C32.3873 31.8605 31.8905 31.7981 31.2857 31.3805C30.8237 31.0577 30.3641 30.5261 29.9189 30.0065C29.2541 29.2349 28.6793 28.5653 28.0973 28.5653C28.0238 28.5651 27.9508 28.5773 27.8813 28.6013C27.4409 28.7405 26.8817 29.3681 26.8817 31.0397C26.8817 31.5629 26.4689 31.8605 26.1797 31.8605H24.6089C24.0737 31.8605 21.2873 31.6733 18.8165 29.0681C15.7889 25.8785 13.0697 19.48 13.0433 19.4236C12.8741 19.0096 13.2293 18.784 13.6133 18.784H17.0765C17.5409 18.784 17.6921 19.0648 17.7977 19.3168C17.9201 19.606 18.3737 20.7628 19.1177 22.0624C20.3225 24.1768 21.0629 25.0373 21.6545 25.0373C21.7657 25.0376 21.8749 25.0086 21.9713 24.9533C22.7441 24.5285 22.6001 21.7684 22.5641 21.1996C22.5641 21.0892 22.5629 19.9672 22.1669 19.4248C21.8837 19.036 21.4013 18.8848 21.1097 18.8296C21.1877 18.7168 21.3533 18.544 21.5657 18.442C22.0949 18.178 23.0513 18.1396 24.0005 18.1396H24.5273C25.5569 18.154 25.8233 18.22 26.1977 18.3148C26.9513 18.4948 26.9657 18.9832 26.8997 20.6464C26.8805 21.1216 26.8601 21.6568 26.8601 22.2868C26.8601 22.4212 26.8541 22.5712 26.8541 22.7236C26.8313 23.5768 26.8013 24.5381 27.4037 24.9329C27.4818 24.9815 27.5721 25.0073 27.6641 25.0072C27.8729 25.0072 28.4981 25.0072 30.1937 22.0972C30.9377 20.812 31.5137 19.2964 31.5533 19.1824C31.5869 19.1188 31.6877 18.94 31.8101 18.868C31.8972 18.8217 31.9947 18.7986 32.0933 18.8008H36.1673C36.6113 18.8008 36.9125 18.868 36.9713 19.036C37.0697 19.3084 36.9521 20.14 35.0921 22.6552C34.7789 23.074 34.5041 23.4365 34.2629 23.7533C32.5769 25.9661 32.5769 26.0777 34.3625 27.7577Z" fill="white"/>
</g>
<defs>
<linearGradient id="paint0_linear_103091_3" x1="5.1105" y1="-5.43152e-06" x2="48.2386" y2="3.21466" gradientUnits="userSpaceOnUse">
<stop stop-color="#C89AFC"/>
<stop offset="1" stop-color="#7C6AFA"/>
</linearGradient>
<clipPath id="clip0_103091_3">
<rect x="13" y="13" width="24" height="24" fill="white"/>
</clipPath>
</defs>
</svg>
