<svg width="50" height="50" viewBox="0 0 50 50" fill="none" xmlns="http://www.w3.org/2000/svg">
<circle cx="25" cy="25" r="25" fill="url(#paint0_linear_103091_6)"/>
<path d="M35.0576 19.9454C34.9381 19.5014 34.7041 19.0966 34.3789 18.7715C34.0538 18.4464 33.649 18.2124 33.2051 18.0929C31.5701 17.6504 25.0001 17.6504 25.0001 17.6504C25.0001 17.6504 18.4301 17.6504 16.7951 18.0929C16.3511 18.2124 15.9463 18.4464 15.6212 18.7715C15.2961 19.0966 15.0621 19.5014 14.9426 19.9454C14.6373 21.6128 14.4891 23.3053 14.5001 25.0004C14.4891 26.6955 14.6373 28.3879 14.9426 30.0554C15.0621 30.4994 15.2961 30.9042 15.6212 31.2293C15.9463 31.5544 16.3511 31.7884 16.7951 31.9079C18.4301 32.3504 25.0001 32.3504 25.0001 32.3504C25.0001 32.3504 31.5701 32.3504 33.2051 31.9079C33.649 31.7884 34.0538 31.5544 34.3789 31.2293C34.7041 30.9042 34.9381 30.4994 35.0576 30.0554C35.3629 28.3879 35.511 26.6955 35.5001 25.0004C35.511 23.3053 35.3629 21.6128 35.0576 19.9454ZM22.9001 28.1504V21.8504L28.3526 25.0004L22.9001 28.1504Z" fill="white"/>
<defs>
<linearGradient id="paint0_linear_103091_6" x1="5.1105" y1="-5.43152e-06" x2="48.2386" y2="3.21466" gradientUnits="userSpaceOnUse">
<stop stop-color="#C89AFC"/>
<stop offset="1" stop-color="#7C6AFA"/>
</linearGradient>
</defs>
</svg>
